<svg width="13" height="16" viewBox="0 0 13 16" fill="none" xmlns="http://www.w3.org/2000/svg">
<path d="M12.0771 15.748H0V14.4473H12.0771V15.748ZM6.34961 0.0078125C9.53998 0.169723 12.0769 2.8085 12.0771 6.03906L12.0693 6.34961C11.9075 9.54001 9.26961 12.0768 6.03906 12.0771L5.72754 12.0693C2.64004 11.9126 0.164394 9.43715 0.0078125 6.34961L0 6.03906C0.000211135 2.70415 2.70411 0 6.03906 0L6.34961 0.0078125ZM6.03906 1.9502C3.78106 1.9502 1.95041 3.78111 1.9502 6.03906C1.95039 8.29703 3.78105 10.127 6.03906 10.127C8.29681 10.1266 10.1268 8.29683 10.127 6.03906C10.1267 3.78131 8.29679 1.95051 6.03906 1.9502Z" fill="#FF5138"/>
</svg>
